<svg xmlns="http://www.w3.org/2000/svg" width="480" height="256" viewBox="0 0 480 256" fill="none"><rect width="480" height="256" fill="#B1AA9A"/><path d="M0 64H480M0 128H480M0 192H480M80 0V256M160 0V256M240 0V256M320 0V256M400 0V256" stroke="#B1AA9A" stroke-width="1" opacity=".32"/><path d="M20 206 L102 206 L164 164 L254 164 L320 112 L444 112" stroke="#B1AA9A" stroke-width="7" stroke-linecap="square" stroke-linejoin="miter" opacity=".22"/><path d="M20 206 L102 206 L164 164 L254 164 L320 112 L444 112" stroke="#B1AA9A" stroke-width="2" stroke-linecap="square" stroke-linejoin="miter"/><circle cx="20" cy="206" r="5" fill="#0A0A0A" stroke="#B1AA9A" stroke-width="2"/><circle cx="102" cy="206" r="5" fill="#0A0A0A" stroke="#B1AA9A" stroke-width="2"/><circle cx="164" cy="164" r="5" fill="#0A0A0A" stroke="#B1AA9A" stroke-width="2"/><circle cx="254" cy="164" r="5" fill="#0A0A0A" stroke="#B1AA9A" stroke-width="2"/><circle cx="320" cy="112" r="5" fill="#0A0A0A" stroke="#B1AA9A" stroke-width="2"/><circle cx="444" cy="112" r="7" fill="#B1AA9A" stroke="#B1AA9A" stroke-width="2"/></svg>
