<svg xmlns="http://www.w3.org/2000/svg" width="480" height="256" viewBox="0 0 480 256" fill="none"><rect width="480" height="256" fill="#B1AA9A"/><circle cx="36" cy="38" r="7" fill="#B1AA9A"/><circle cx="112" cy="38" r="3" fill="#0A0A0A"/><circle cx="188" cy="38" r="3" fill="#0A0A0A"/><circle cx="264" cy="38" r="3" fill="#0A0A0A"/><circle cx="340" cy="38" r="7" fill="#B1AA9A"/><circle cx="416" cy="38" r="3" fill="#0A0A0A"/><circle cx="36" cy="110" r="3" fill="#0A0A0A"/><circle cx="112" cy="110" r="3" fill="#0A0A0A"/><circle cx="188" cy="110" r="7" fill="#B1AA9A"/><circle cx="264" cy="110" r="3" fill="#0A0A0A"/><circle cx="340" cy="110" r="3" fill="#0A0A0A"/><circle cx="416" cy="110" r="3" fill="#0A0A0A"/><circle cx="36" cy="182" r="7" fill="#B1AA9A"/><circle cx="112" cy="182" r="3" fill="#0A0A0A"/><circle cx="188" cy="182" r="3" fill="#0A0A0A"/><circle cx="264" cy="182" r="3" fill="#0A0A0A"/><circle cx="340" cy="182" r="7" fill="#B1AA9A"/><circle cx="416" cy="182" r="3" fill="#0A0A0A"/><path d="M36 182H420" stroke="#B1AA9A" stroke-width="2"/></svg>
