<svg xmlns="http://www.w3.org/2000/svg" style="display:none"><symbol id="scale-up-icon-target" viewBox="0 0 24 24"><circle cx="12" cy="12" r="7" stroke="currentColor" stroke-width="1.8"/><path d="M12 5V2M12 22V19M5 12H2M22 12H19" stroke="currentColor" stroke-width="1.8"/></symbol><symbol id="scale-up-icon-diagnostic" viewBox="0 0 24 24"><rect x="4" y="4" width="16" height="16" stroke="currentColor" stroke-width="1.8"/><path d="M7 9H17M7 13H14M7 17H12" stroke="currentColor" stroke-width="1.8"/></symbol><symbol id="scale-up-icon-priority" viewBox="0 0 24 24"><path d="M4 18L10 12L14 15L21 7" stroke="currentColor" stroke-width="1.8"/><circle cx="10" cy="12" r="2" fill="currentColor"/></symbol><symbol id="scale-up-icon-roadmap" viewBox="0 0 24 24"><path d="M4 19V7L10 5L16 7L20 5V17L14 19L8 17L4 19Z" stroke="currentColor" stroke-width="1.8"/></symbol><symbol id="scale-up-icon-decision" viewBox="0 0 24 24"><circle cx="12" cy="12" r="7" stroke="currentColor" stroke-width="1.8"/><path d="M12 5V2M12 22V19M5 12H2M22 12H19" stroke="currentColor" stroke-width="1.8"/></symbol><symbol id="scale-up-icon-opportunity" viewBox="0 0 24 24"><rect x="4" y="4" width="16" height="16" stroke="currentColor" stroke-width="1.8"/><path d="M7 9H17M7 13H14M7 17H12" stroke="currentColor" stroke-width="1.8"/></symbol><symbol id="scale-up-icon-growth" viewBox="0 0 24 24"><path d="M4 18L10 12L14 15L21 7" stroke="currentColor" stroke-width="1.8"/><circle cx="10" cy="12" r="2" fill="currentColor"/></symbol><symbol id="scale-up-icon-revenue" viewBox="0 0 24 24"><path d="M4 19V7L10 5L16 7L20 5V17L14 19L8 17L4 19Z" stroke="currentColor" stroke-width="1.8"/></symbol><symbol id="scale-up-icon-scale" viewBox="0 0 24 24"><circle cx="12" cy="12" r="7" stroke="currentColor" stroke-width="1.8"/><path d="M12 5V2M12 22V19M5 12H2M22 12H19" stroke="currentColor" stroke-width="1.8"/></symbol><symbol id="scale-up-icon-market" viewBox="0 0 24 24"><rect x="4" y="4" width="16" height="16" stroke="currentColor" stroke-width="1.8"/><path d="M7 9H17M7 13H14M7 17H12" stroke="currentColor" stroke-width="1.8"/></symbol><symbol id="scale-up-icon-launch" viewBox="0 0 24 24"><path d="M4 18L10 12L14 15L21 7" stroke="currentColor" stroke-width="1.8"/><circle cx="10" cy="12" r="2" fill="currentColor"/></symbol><symbol id="scale-up-icon-momentum" viewBox="0 0 24 24"><path d="M4 19V7L10 5L16 7L20 5V17L14 19L8 17L4 19Z" stroke="currentColor" stroke-width="1.8"/></symbol><symbol id="scale-up-icon-founder" viewBox="0 0 24 24"><circle cx="12" cy="12" r="7" stroke="currentColor" stroke-width="1.8"/><path d="M12 5V2M12 22V19M5 12H2M22 12H19" stroke="currentColor" stroke-width="1.8"/></symbol><symbol id="scale-up-icon-executive-team" viewBox="0 0 24 24"><rect x="4" y="4" width="16" height="16" stroke="currentColor" stroke-width="1.8"/><path d="M7 9H17M7 13H14M7 17H12" stroke="currentColor" stroke-width="1.8"/></symbol><symbol id="scale-up-icon-alignment" viewBox="0 0 24 24"><path d="M4 18L10 12L14 15L21 7" stroke="currentColor" stroke-width="1.8"/><circle cx="10" cy="12" r="2" fill="currentColor"/></symbol><symbol id="scale-up-icon-ownership" viewBox="0 0 24 24"><path d="M4 19V7L10 5L16 7L20 5V17L14 19L8 17L4 19Z" stroke="currentColor" stroke-width="1.8"/></symbol><symbol id="scale-up-icon-accountability" viewBox="0 0 24 24"><circle cx="12" cy="12" r="7" stroke="currentColor" stroke-width="1.8"/><path d="M12 5V2M12 22V19M5 12H2M22 12H19" stroke="currentColor" stroke-width="1.8"/></symbol><symbol id="scale-up-icon-partnership" viewBox="0 0 24 24"><rect x="4" y="4" width="16" height="16" stroke="currentColor" stroke-width="1.8"/><path d="M7 9H17M7 13H14M7 17H12" stroke="currentColor" stroke-width="1.8"/></symbol><symbol id="scale-up-icon-workflow" viewBox="0 0 24 24"><path d="M4 18L10 12L14 15L21 7" stroke="currentColor" stroke-width="1.8"/><circle cx="10" cy="12" r="2" fill="currentColor"/></symbol><symbol id="scale-up-icon-operating-rhythm" viewBox="0 0 24 24"><path d="M4 19V7L10 5L16 7L20 5V17L14 19L8 17L4 19Z" stroke="currentColor" stroke-width="1.8"/></symbol><symbol id="scale-up-icon-measurement" viewBox="0 0 24 24"><circle cx="12" cy="12" r="7" stroke="currentColor" stroke-width="1.8"/><path d="M12 5V2M12 22V19M5 12H2M22 12H19" stroke="currentColor" stroke-width="1.8"/></symbol><symbol id="scale-up-icon-review" viewBox="0 0 24 24"><rect x="4" y="4" width="16" height="16" stroke="currentColor" stroke-width="1.8"/><path d="M7 9H17M7 13H14M7 17H12" stroke="currentColor" stroke-width="1.8"/></symbol><symbol id="scale-up-icon-workshop" viewBox="0 0 24 24"><path d="M4 18L10 12L14 15L21 7" stroke="currentColor" stroke-width="1.8"/><circle cx="10" cy="12" r="2" fill="currentColor"/></symbol><symbol id="scale-up-icon-action" viewBox="0 0 24 24"><path d="M4 19V7L10 5L16 7L20 5V17L14 19L8 17L4 19Z" stroke="currentColor" stroke-width="1.8"/></symbol></svg>
