<svg xmlns="http://www.w3.org/2000/svg" viewBox="0 0 913.00 316.00" role="img" aria-label="Scale Up scale-up-stacked-lockup-white">

<path d="M 466.00,302.00 L 468.00,303.00 L 505.00,303.00 L 507.00,302.00 L 508.00,300.00 L 508.00,295.00 L 472.00,295.00 L 468.00,297.00 Z" fill="#FFFFFF" fill-rule="evenodd" transform="translate(6.00,6.00)"/>
<path d="M 472.00,289.00 L 473.00,290.00 L 510.00,290.00 L 514.00,287.00 L 514.00,283.00 L 511.00,281.00 L 508.00,281.00 L 507.00,282.00 L 495.00,282.00 L 494.00,281.00 L 493.00,282.00 L 491.00,282.00 L 490.00,281.00 L 485.00,281.00 L 484.00,282.00 L 476.00,282.00 L 473.00,285.00 L 473.00,287.00 Z" fill="#FFFFFF" fill-rule="evenodd" transform="translate(6.00,6.00)"/>
<path d="M 759.00,301.00 L 761.00,303.00 L 766.00,303.00 L 769.00,300.00 L 769.00,298.00 L 772.00,294.00 L 772.00,292.00 L 774.00,290.00 L 776.00,291.00 L 777.00,290.00 L 779.00,291.00 L 799.00,291.00 L 800.00,290.00 L 802.00,290.00 L 804.00,289.00 L 808.00,285.00 L 808.00,281.00 L 811.00,277.00 L 811.00,272.00 L 810.00,270.00 L 808.00,269.00 L 775.00,269.00 L 771.00,273.00 L 771.00,275.00 L 772.00,276.00 L 800.00,276.00 L 801.00,277.00 L 801.00,280.00 L 798.00,282.00 L 769.00,282.00 L 766.00,285.00 L 765.00,287.00 L 765.00,289.00 L 762.00,294.00 L 762.00,296.00 Z" fill="#FFFFFF" fill-rule="evenodd" transform="translate(6.00,6.00)"/>
<path d="M 653.00,269.00 L 651.00,271.00 L 651.00,273.00 L 648.00,278.00 L 648.00,280.00 L 645.00,286.00 L 645.00,289.00 L 642.00,293.00 L 642.00,296.00 L 641.00,297.00 L 642.00,299.00 L 642.00,301.00 L 644.00,303.00 L 676.00,303.00 L 680.00,299.00 L 681.00,299.00 L 682.00,297.00 L 682.00,295.00 L 685.00,291.00 L 685.00,288.00 L 688.00,284.00 L 688.00,281.00 L 691.00,276.00 L 691.00,273.00 L 692.00,271.00 L 690.00,269.00 L 685.00,269.00 L 684.00,270.00 L 681.00,276.00 L 681.00,278.00 L 678.00,282.00 L 678.00,285.00 L 675.00,289.00 L 675.00,292.00 L 671.00,296.00 L 669.00,296.00 L 668.00,295.00 L 662.00,295.00 L 661.00,296.00 L 653.00,296.00 L 650.00,294.00 L 653.00,289.00 L 653.00,287.00 L 655.00,284.00 L 655.00,281.00 L 660.00,271.00 L 658.00,269.00 Z" fill="#FFFFFF" fill-rule="evenodd" transform="translate(6.00,6.00)"/>
<path d="M 478.00,276.00 L 517.00,276.00 L 520.00,273.00 L 520.00,271.00 L 519.00,269.00 L 481.00,269.00 L 478.00,273.00 Z" fill="#FFFFFF" fill-rule="evenodd" transform="translate(6.00,6.00)"/>
<path d="M 366.00,269.00 L 363.00,272.00 L 363.00,275.00 L 357.00,287.00 L 357.00,291.00 L 354.00,295.00 L 354.00,301.00 L 356.00,303.00 L 390.00,303.00 L 393.00,300.00 L 394.00,298.00 L 393.00,296.00 L 391.00,296.00 L 390.00,295.00 L 388.00,296.00 L 380.00,296.00 L 379.00,295.00 L 372.00,295.00 L 371.00,296.00 L 365.00,296.00 L 364.00,295.00 L 364.00,292.00 L 367.00,288.00 L 367.00,285.00 L 370.00,280.00 L 370.00,277.00 L 373.00,273.00 L 373.00,270.00 L 372.00,269.00 Z" fill="#FFFFFF" fill-rule="evenodd" transform="translate(6.00,6.00)"/>
<path d="M 274.00,271.00 L 272.00,269.00 L 267.00,269.00 L 265.00,270.00 L 248.00,287.00 L 248.00,288.00 L 240.00,296.00 L 239.00,296.00 L 237.00,298.00 L 235.00,302.00 L 237.00,303.00 L 243.00,303.00 L 245.00,302.00 L 247.00,300.00 L 247.00,299.00 L 259.00,287.00 L 259.00,286.00 L 261.00,285.00 L 262.00,283.00 L 265.00,280.00 L 266.00,280.00 L 267.00,281.00 L 267.00,283.00 L 268.00,284.00 L 268.00,287.00 L 269.00,288.00 L 269.00,291.00 L 270.00,292.00 L 270.00,299.00 L 271.00,301.00 L 273.00,303.00 L 279.00,303.00 L 280.00,302.00 L 280.00,295.00 L 279.00,294.00 L 279.00,291.00 L 277.00,287.00 L 277.00,281.00 L 276.00,280.00 L 276.00,277.00 L 275.00,276.00 Z" fill="#FFFFFF" fill-rule="evenodd" transform="translate(6.00,6.00)"/>
<path d="M 131.00,269.00 L 126.00,274.00 L 126.00,275.00 L 123.00,279.00 L 123.00,282.00 L 121.00,284.00 L 120.00,286.00 L 120.00,289.00 L 117.00,293.00 L 117.00,300.00 L 120.00,303.00 L 156.00,303.00 L 159.00,298.00 L 158.00,296.00 L 128.00,296.00 L 127.00,295.00 L 127.00,292.00 L 130.00,288.00 L 130.00,284.00 L 134.00,277.00 L 140.00,277.00 L 141.00,276.00 L 168.00,276.00 L 169.00,275.00 L 170.00,270.00 L 168.00,269.00 Z" fill="#FFFFFF" fill-rule="evenodd" transform="translate(6.00,6.00)"/>
<path d="M 16.00,269.00 L 13.00,272.00 L 12.00,272.00 L 12.00,273.00 L 9.00,276.00 L 9.00,278.00 L 6.00,283.00 L 6.00,285.00 L 7.00,287.00 L 11.00,290.00 L 34.00,290.00 L 35.00,291.00 L 35.00,293.00 L 33.00,295.00 L 13.00,295.00 L 12.00,296.00 L 1.00,296.00 L 0.00,298.00 L 0.00,302.00 L 1.00,303.00 L 37.00,303.00 L 42.00,298.00 L 43.00,296.00 L 43.00,292.00 L 46.00,288.00 L 46.00,285.00 L 43.00,282.00 L 41.00,282.00 L 40.00,281.00 L 39.00,282.00 L 18.00,282.00 L 16.00,280.00 L 17.00,278.00 L 20.00,276.00 L 50.00,276.00 L 52.00,274.00 L 52.00,270.00 L 51.00,269.00 Z" fill="#FFFFFF" fill-rule="evenodd" transform="translate(6.00,6.00)"/>
<path d="M 824.00,64.00 L 823.00,62.00 L 786.00,62.00 L 698.00,149.00 L 697.00,149.00 L 696.00,151.00 L 694.00,152.00 L 693.00,154.00 L 691.00,155.00 L 690.00,157.00 L 688.00,158.00 L 688.00,159.00 L 677.00,170.00 L 676.00,170.00 L 674.00,172.00 L 666.00,176.00 L 661.00,176.00 L 660.00,177.00 L 482.00,177.00 L 481.00,176.00 L 479.00,176.00 L 475.00,172.00 L 475.00,167.00 L 477.00,165.00 L 477.00,164.00 L 496.00,145.00 L 496.00,144.00 L 498.00,142.00 L 499.00,142.00 L 499.00,141.00 L 511.00,129.00 L 511.00,128.00 L 513.00,126.00 L 514.00,126.00 L 514.00,125.00 L 516.00,123.00 L 518.00,122.00 L 518.00,120.00 L 517.00,119.00 L 439.00,119.00 L 438.00,121.00 L 426.00,133.00 L 426.00,134.00 L 420.00,140.00 L 420.00,141.00 L 414.00,147.00 L 414.00,148.00 L 412.00,149.00 L 411.00,151.00 L 404.00,158.00 L 402.00,162.00 L 396.00,169.00 L 396.00,171.00 L 393.00,175.00 L 393.00,178.00 L 390.00,182.00 L 390.00,198.00 L 393.00,203.00 L 393.00,205.00 L 401.00,213.00 L 413.00,219.00 L 420.00,219.00 L 421.00,220.00 L 472.00,220.00 L 473.00,221.00 L 480.00,221.00 L 481.00,220.00 L 681.00,220.00 L 682.00,219.00 L 691.00,219.00 L 696.00,216.00 L 700.00,216.00 L 705.00,213.00 L 707.00,213.00 L 709.00,211.00 L 714.00,209.00 L 723.00,201.00 L 724.00,201.00 L 733.00,192.00 L 733.00,191.00 L 735.00,189.00 L 736.00,189.00 L 736.00,188.00 L 738.00,186.00 L 739.00,186.00 L 739.00,185.00 L 741.00,183.00 L 742.00,183.00 L 742.00,182.00 L 744.00,180.00 L 745.00,180.00 L 758.00,167.00 L 759.00,167.00 L 777.00,149.00 L 778.00,149.00 L 778.00,148.00 L 780.00,147.00 L 781.00,145.00 L 783.00,144.00 L 784.00,142.00 L 786.00,141.00 L 787.00,139.00 L 789.00,138.00 L 790.00,136.00 L 792.00,135.00 L 794.00,132.00 L 795.00,132.00 L 804.00,123.00 L 805.00,123.00 L 805.00,122.00 L 807.00,120.00 L 808.00,120.00 L 808.00,119.00 L 810.00,117.00 L 811.00,117.00 L 811.00,116.00 L 813.00,114.00 L 814.00,114.00 L 823.00,105.00 L 824.00,105.00 L 825.00,103.00 L 826.00,103.00 L 828.00,101.00 L 829.00,99.00 L 829.00,96.00 L 828.00,95.00 L 828.00,92.00 L 827.00,91.00 L 827.00,85.00 L 826.00,84.00 L 826.00,74.00 L 825.00,73.00 L 825.00,68.00 L 824.00,67.00 Z" fill="#FFFFFF" fill-rule="evenodd" transform="translate(6.00,6.00)"/>
<path d="M 579.00,55.00 L 577.00,54.00 L 576.00,55.00 L 168.00,55.00 L 167.00,56.00 L 160.00,56.00 L 159.00,57.00 L 157.00,57.00 L 155.00,59.00 L 151.00,59.00 L 147.00,62.00 L 145.00,62.00 L 141.00,65.00 L 139.00,65.00 L 136.00,68.00 L 135.00,68.00 L 128.00,74.00 L 127.00,74.00 L 126.00,76.00 L 117.00,86.00 L 114.00,92.00 L 112.00,94.00 L 111.00,97.00 L 108.00,100.00 L 108.00,102.00 L 102.00,109.00 L 102.00,111.00 L 96.00,118.00 L 96.00,120.00 L 93.00,123.00 L 93.00,124.00 L 90.00,127.00 L 90.00,128.00 L 87.00,132.00 L 87.00,135.00 L 86.00,136.00 L 86.00,142.00 L 87.00,143.00 L 87.00,146.00 L 88.00,148.00 L 93.00,153.00 L 99.00,156.00 L 103.00,156.00 L 106.00,158.00 L 110.00,158.00 L 111.00,159.00 L 246.00,159.00 L 247.00,158.00 L 265.00,158.00 L 266.00,159.00 L 268.00,158.00 L 270.00,159.00 L 296.00,159.00 L 298.00,158.00 L 300.00,160.00 L 300.00,161.00 L 297.00,164.00 L 295.00,168.00 L 289.00,174.00 L 288.00,174.00 L 286.00,176.00 L 283.00,176.00 L 282.00,177.00 L 278.00,177.00 L 277.00,178.00 L 163.00,178.00 L 162.00,177.00 L 48.00,177.00 L 47.00,178.00 L 45.00,178.00 L 43.00,179.00 L 43.00,180.00 L 39.00,184.00 L 39.00,185.00 L 35.00,189.00 L 35.00,190.00 L 33.00,191.00 L 33.00,192.00 L 30.00,195.00 L 30.00,196.00 L 22.00,204.00 L 22.00,205.00 L 18.00,209.00 L 18.00,210.00 L 16.00,212.00 L 15.00,212.00 L 15.00,213.00 L 13.00,215.00 L 12.00,215.00 L 11.00,218.00 L 12.00,220.00 L 296.00,220.00 L 297.00,219.00 L 305.00,219.00 L 306.00,218.00 L 308.00,218.00 L 312.00,216.00 L 315.00,216.00 L 318.00,214.00 L 323.00,213.00 L 325.00,211.00 L 330.00,209.00 L 335.00,205.00 L 338.00,204.00 L 349.00,193.00 L 349.00,192.00 L 354.00,186.00 L 355.00,183.00 L 358.00,180.00 L 360.00,176.00 L 364.00,172.00 L 364.00,170.00 L 371.00,162.00 L 371.00,161.00 L 374.00,158.00 L 374.00,157.00 L 379.00,151.00 L 379.00,150.00 L 382.00,146.00 L 382.00,133.00 L 379.00,130.00 L 379.00,129.00 L 376.00,127.00 L 376.00,126.00 L 373.00,125.00 L 369.00,122.00 L 365.00,122.00 L 359.00,119.00 L 170.00,119.00 L 169.00,118.00 L 169.00,116.00 L 171.00,114.00 L 172.00,111.00 L 175.00,108.00 L 175.00,107.00 L 181.00,102.00 L 184.00,102.00 L 188.00,100.00 L 194.00,100.00 L 195.00,99.00 L 199.00,99.00 L 200.00,100.00 L 208.00,100.00 L 209.00,99.00 L 540.00,99.00 L 544.00,95.00 L 544.00,94.00 L 565.00,73.00 L 565.00,72.00 L 574.00,63.00 L 574.00,62.00 L 579.00,58.00 Z" fill="#FFFFFF" fill-rule="evenodd" transform="translate(6.00,6.00)"/>
<path d="M 900.00,0.00 L 886.00,0.00 L 884.00,2.00 L 881.00,2.00 L 875.00,5.00 L 871.00,5.00 L 866.00,8.00 L 863.00,8.00 L 857.00,11.00 L 854.00,11.00 L 849.00,14.00 L 845.00,14.00 L 840.00,17.00 L 837.00,17.00 L 836.00,18.00 L 834.00,18.00 L 832.00,20.00 L 828.00,20.00 L 823.00,23.00 L 820.00,23.00 L 815.00,26.00 L 812.00,26.00 L 807.00,29.00 L 803.00,29.00 L 798.00,32.00 L 795.00,32.00 L 790.00,35.00 L 786.00,35.00 L 785.00,36.00 L 783.00,36.00 L 773.00,41.00 L 769.00,41.00 L 768.00,42.00 L 766.00,42.00 L 763.00,45.00 L 763.00,47.00 L 765.00,47.00 L 766.00,48.00 L 771.00,48.00 L 772.00,47.00 L 786.00,47.00 L 787.00,48.00 L 833.00,48.00 L 835.00,47.00 L 837.00,48.00 L 839.00,50.00 L 838.00,52.00 L 839.00,53.00 L 839.00,59.00 L 840.00,60.00 L 840.00,75.00 L 841.00,76.00 L 841.00,81.00 L 842.00,82.00 L 842.00,85.00 L 843.00,86.00 L 843.00,95.00 L 844.00,96.00 L 846.00,96.00 L 848.00,92.00 L 850.00,90.00 L 850.00,88.00 L 852.00,86.00 L 854.00,81.00 L 856.00,79.00 L 856.00,77.00 L 858.00,75.00 L 859.00,73.00 L 859.00,71.00 L 861.00,69.00 L 863.00,64.00 L 865.00,62.00 L 865.00,60.00 L 868.00,57.00 L 868.00,55.00 L 871.00,52.00 L 871.00,50.00 L 874.00,47.00 L 874.00,45.00 L 876.00,43.00 L 878.00,38.00 L 880.00,36.00 L 880.00,34.00 L 883.00,31.00 L 883.00,29.00 L 886.00,26.00 L 886.00,24.00 L 888.00,22.00 L 890.00,17.00 L 892.00,15.00 L 892.00,13.00 L 895.00,10.00 L 895.00,8.00 L 898.00,4.00 L 898.00,3.00 L 900.00,1.00 Z" fill="#FFFFFF" fill-rule="evenodd" transform="translate(6.00,6.00)"/>
</svg>
