<svg xmlns="http://www.w3.org/2000/svg" viewBox="0 0 2627.00 786.00" role="img" aria-label="Scale Up scale-up-primary-white">

<path d="M 1331.00,771.00 L 1333.00,772.00 L 1427.00,772.00 L 1429.00,771.00 L 1430.00,769.00 L 1430.00,767.00 L 1432.00,765.00 L 1435.00,759.00 L 1435.00,756.00 L 1433.00,755.00 L 1339.00,755.00 L 1337.00,756.00 L 1336.00,758.00 L 1336.00,760.00 L 1334.00,762.00 L 1333.00,764.00 L 1333.00,766.00 L 1331.00,768.00 Z" fill="#FFFFFF" fill-rule="evenodd" transform="translate(6.00,6.00)"/>
<path d="M 1348.00,738.00 L 1349.00,739.00 L 1443.00,739.00 L 1445.00,737.00 L 1446.00,734.00 L 1448.00,732.00 L 1448.00,730.00 L 1451.00,727.00 L 1451.00,724.00 L 1449.00,722.00 L 1356.00,722.00 L 1354.00,723.00 L 1354.00,724.00 L 1351.00,727.00 L 1351.00,730.00 L 1348.00,734.00 Z" fill="#FFFFFF" fill-rule="evenodd" transform="translate(6.00,6.00)"/>
<path d="M 2128.00,771.00 L 2130.00,772.00 L 2144.00,772.00 L 2147.00,770.00 L 2147.00,768.00 L 2148.00,766.00 L 2150.00,764.00 L 2150.00,762.00 L 2153.00,758.00 L 2153.00,756.00 L 2155.00,754.00 L 2157.00,749.00 L 2159.00,747.00 L 2159.00,744.00 L 2162.00,741.00 L 2163.00,739.00 L 2234.00,739.00 L 2235.00,738.00 L 2238.00,738.00 L 2242.00,735.00 L 2244.00,735.00 L 2249.00,730.00 L 2249.00,728.00 L 2252.00,723.00 L 2252.00,720.00 L 2254.00,718.00 L 2255.00,716.00 L 2255.00,714.00 L 2258.00,710.00 L 2258.00,707.00 L 2261.00,704.00 L 2261.00,694.00 L 2257.00,690.00 L 2255.00,689.00 L 2168.00,689.00 L 2166.00,690.00 L 2164.00,692.00 L 2164.00,694.00 L 2161.00,698.00 L 2161.00,700.00 L 2159.00,703.00 L 2160.00,706.00 L 2162.00,707.00 L 2235.00,707.00 L 2237.00,709.00 L 2237.00,710.00 L 2236.00,711.00 L 2236.00,713.00 L 2233.00,719.00 L 2230.00,722.00 L 2228.00,723.00 L 2216.00,723.00 L 2215.00,722.00 L 2153.00,722.00 L 2151.00,723.00 L 2147.00,728.00 L 2146.00,730.00 L 2146.00,732.00 L 2144.00,734.00 L 2143.00,736.00 L 2143.00,738.00 L 2141.00,740.00 L 2140.00,742.00 L 2140.00,744.00 L 2137.00,748.00 L 2137.00,751.00 L 2134.00,754.00 L 2134.00,757.00 L 2132.00,759.00 L 2131.00,761.00 L 2131.00,763.00 L 2128.00,767.00 Z" fill="#FFFFFF" fill-rule="evenodd" transform="translate(6.00,6.00)"/>
<path d="M 1830.00,690.00 L 1828.00,692.00 L 1828.00,694.00 L 1825.00,698.00 L 1825.00,701.00 L 1823.00,703.00 L 1822.00,705.00 L 1822.00,707.00 L 1820.00,709.00 L 1819.00,711.00 L 1819.00,713.00 L 1816.00,717.00 L 1816.00,719.00 L 1815.00,721.00 L 1813.00,723.00 L 1813.00,726.00 L 1811.00,728.00 L 1810.00,730.00 L 1810.00,732.00 L 1807.00,736.00 L 1807.00,739.00 L 1804.00,742.00 L 1804.00,745.00 L 1802.00,747.00 L 1801.00,749.00 L 1801.00,751.00 L 1798.00,755.00 L 1798.00,758.00 L 1797.00,759.00 L 1797.00,763.00 L 1798.00,764.00 L 1798.00,766.00 L 1801.00,769.00 L 1802.00,771.00 L 1805.00,771.00 L 1806.00,772.00 L 1879.00,772.00 L 1880.00,771.00 L 1885.00,771.00 L 1886.00,770.00 L 1888.00,770.00 L 1892.00,768.00 L 1898.00,763.00 L 1899.00,760.00 L 1901.00,758.00 L 1901.00,755.00 L 1903.00,753.00 L 1904.00,751.00 L 1904.00,749.00 L 1907.00,745.00 L 1907.00,742.00 L 1909.00,740.00 L 1910.00,738.00 L 1910.00,736.00 L 1913.00,732.00 L 1913.00,730.00 L 1916.00,727.00 L 1916.00,724.00 L 1918.00,722.00 L 1919.00,720.00 L 1919.00,718.00 L 1922.00,714.00 L 1922.00,711.00 L 1925.00,707.00 L 1925.00,705.00 L 1928.00,700.00 L 1928.00,698.00 L 1931.00,695.00 L 1931.00,691.00 L 1929.00,689.00 L 1915.00,689.00 L 1911.00,692.00 L 1906.00,702.00 L 1906.00,704.00 L 1904.00,706.00 L 1903.00,708.00 L 1903.00,710.00 L 1900.00,714.00 L 1900.00,716.00 L 1897.00,721.00 L 1897.00,723.00 L 1894.00,728.00 L 1894.00,730.00 L 1891.00,734.00 L 1891.00,737.00 L 1889.00,739.00 L 1888.00,741.00 L 1888.00,743.00 L 1886.00,745.00 L 1884.00,751.00 L 1882.00,752.00 L 1882.00,753.00 L 1880.00,755.00 L 1822.00,755.00 L 1820.00,753.00 L 1820.00,752.00 L 1822.00,750.00 L 1823.00,748.00 L 1823.00,746.00 L 1825.00,744.00 L 1826.00,742.00 L 1826.00,740.00 L 1828.00,738.00 L 1829.00,736.00 L 1829.00,734.00 L 1832.00,730.00 L 1832.00,727.00 L 1835.00,724.00 L 1835.00,721.00 L 1838.00,717.00 L 1838.00,714.00 L 1840.00,712.00 L 1841.00,710.00 L 1841.00,708.00 L 1843.00,706.00 L 1844.00,704.00 L 1844.00,702.00 L 1849.00,692.00 L 1849.00,691.00 L 1847.00,689.00 L 1833.00,689.00 L 1832.00,690.00 Z" fill="#FFFFFF" fill-rule="evenodd" transform="translate(6.00,6.00)"/>
<path d="M 1363.00,706.00 L 1364.00,707.00 L 1458.00,707.00 L 1462.00,704.00 L 1463.00,702.00 L 1463.00,700.00 L 1465.00,698.00 L 1467.00,694.00 L 1467.00,690.00 L 1465.00,689.00 L 1432.00,689.00 L 1431.00,690.00 L 1420.00,690.00 L 1419.00,689.00 L 1371.00,689.00 L 1369.00,690.00 L 1366.00,694.00 L 1366.00,697.00 L 1363.00,701.00 Z" fill="#FFFFFF" fill-rule="evenodd" transform="translate(6.00,6.00)"/>
<path d="M 1039.00,690.00 L 1036.00,694.00 L 1036.00,696.00 L 1033.00,701.00 L 1033.00,703.00 L 1032.00,705.00 L 1030.00,707.00 L 1030.00,710.00 L 1028.00,712.00 L 1027.00,714.00 L 1027.00,716.00 L 1024.00,720.00 L 1024.00,722.00 L 1021.00,727.00 L 1021.00,729.00 L 1018.00,732.00 L 1018.00,735.00 L 1016.00,737.00 L 1015.00,739.00 L 1015.00,741.00 L 1012.00,745.00 L 1012.00,747.00 L 1010.00,749.00 L 1008.00,754.00 L 1006.00,756.00 L 1006.00,761.00 L 1005.00,762.00 L 1006.00,763.00 L 1006.00,767.00 L 1010.00,771.00 L 1012.00,772.00 L 1093.00,772.00 L 1094.00,773.00 L 1097.00,773.00 L 1098.00,772.00 L 1102.00,772.00 L 1103.00,771.00 L 1103.00,769.00 L 1106.00,765.00 L 1106.00,762.00 L 1109.00,759.00 L 1109.00,756.00 L 1108.00,755.00 L 1030.00,755.00 L 1028.00,753.00 L 1031.00,750.00 L 1031.00,748.00 L 1034.00,744.00 L 1034.00,742.00 L 1035.00,740.00 L 1037.00,738.00 L 1037.00,735.00 L 1040.00,731.00 L 1040.00,728.00 L 1042.00,726.00 L 1043.00,724.00 L 1043.00,722.00 L 1045.00,720.00 L 1046.00,718.00 L 1046.00,716.00 L 1048.00,714.00 L 1049.00,712.00 L 1049.00,710.00 L 1051.00,708.00 L 1052.00,706.00 L 1052.00,704.00 L 1055.00,700.00 L 1055.00,698.00 L 1058.00,695.00 L 1058.00,690.00 L 1057.00,689.00 L 1041.00,689.00 Z" fill="#FFFFFF" fill-rule="evenodd" transform="translate(6.00,6.00)"/>
<path d="M 767.00,693.00 L 764.00,690.00 L 762.00,689.00 L 750.00,689.00 L 749.00,690.00 L 747.00,690.00 L 741.00,695.00 L 740.00,695.00 L 739.00,697.00 L 737.00,698.00 L 736.00,700.00 L 734.00,701.00 L 732.00,704.00 L 731.00,704.00 L 722.00,713.00 L 721.00,713.00 L 721.00,714.00 L 719.00,716.00 L 718.00,716.00 L 718.00,717.00 L 716.00,719.00 L 715.00,719.00 L 715.00,720.00 L 713.00,722.00 L 712.00,722.00 L 712.00,723.00 L 710.00,725.00 L 709.00,725.00 L 709.00,726.00 L 704.00,731.00 L 703.00,731.00 L 703.00,732.00 L 701.00,734.00 L 700.00,734.00 L 700.00,735.00 L 698.00,737.00 L 697.00,737.00 L 667.00,767.00 L 666.00,767.00 L 664.00,769.00 L 664.00,771.00 L 666.00,773.00 L 667.00,772.00 L 685.00,772.00 L 687.00,771.00 L 705.00,753.00 L 706.00,753.00 L 707.00,751.00 L 709.00,750.00 L 710.00,748.00 L 712.00,747.00 L 713.00,745.00 L 715.00,744.00 L 719.00,740.00 L 719.00,739.00 L 722.00,737.00 L 723.00,735.00 L 724.00,735.00 L 733.00,726.00 L 734.00,726.00 L 734.00,725.00 L 736.00,723.00 L 737.00,723.00 L 737.00,722.00 L 739.00,720.00 L 740.00,720.00 L 740.00,719.00 L 742.00,717.00 L 743.00,717.00 L 743.00,716.00 L 748.00,711.00 L 750.00,713.00 L 750.00,719.00 L 751.00,720.00 L 751.00,729.00 L 752.00,730.00 L 752.00,733.00 L 754.00,737.00 L 754.00,748.00 L 755.00,749.00 L 755.00,753.00 L 757.00,757.00 L 757.00,768.00 L 758.00,769.00 L 758.00,771.00 L 760.00,772.00 L 778.00,772.00 L 779.00,771.00 L 779.00,759.00 L 778.00,758.00 L 778.00,755.00 L 777.00,754.00 L 777.00,751.00 L 776.00,750.00 L 776.00,742.00 L 775.00,741.00 L 775.00,737.00 L 773.00,733.00 L 773.00,722.00 L 772.00,721.00 L 772.00,718.00 L 771.00,717.00 L 771.00,714.00 L 770.00,713.00 L 770.00,703.00 L 769.00,702.00 L 769.00,698.00 L 767.00,695.00 Z" fill="#FFFFFF" fill-rule="evenodd" transform="translate(6.00,6.00)"/>
<path d="M 364.00,695.00 L 358.00,702.00 L 358.00,705.00 L 356.00,707.00 L 355.00,709.00 L 355.00,711.00 L 352.00,715.00 L 352.00,718.00 L 350.00,720.00 L 349.00,722.00 L 349.00,724.00 L 346.00,728.00 L 346.00,730.00 L 343.00,734.00 L 343.00,736.00 L 342.00,738.00 L 340.00,740.00 L 340.00,742.00 L 337.00,747.00 L 337.00,750.00 L 334.00,753.00 L 334.00,756.00 L 332.00,759.00 L 332.00,764.00 L 334.00,768.00 L 337.00,771.00 L 339.00,771.00 L 340.00,772.00 L 426.00,772.00 L 428.00,770.00 L 428.00,768.00 L 431.00,762.00 L 433.00,760.00 L 433.00,756.00 L 431.00,755.00 L 356.00,755.00 L 355.00,754.00 L 355.00,752.00 L 357.00,748.00 L 359.00,746.00 L 359.00,743.00 L 361.00,741.00 L 362.00,739.00 L 362.00,737.00 L 364.00,735.00 L 365.00,733.00 L 365.00,731.00 L 367.00,729.00 L 369.00,723.00 L 371.00,721.00 L 371.00,718.00 L 373.00,716.00 L 374.00,714.00 L 374.00,712.00 L 378.00,707.00 L 414.00,707.00 L 415.00,706.00 L 431.00,706.00 L 432.00,707.00 L 456.00,707.00 L 460.00,705.00 L 461.00,703.00 L 461.00,701.00 L 463.00,699.00 L 466.00,693.00 L 466.00,691.00 L 462.00,689.00 L 460.00,690.00 L 457.00,690.00 L 456.00,689.00 L 376.00,689.00 Z" fill="#FFFFFF" fill-rule="evenodd" transform="translate(6.00,6.00)"/>
<path d="M 136.00,690.00 L 134.00,689.00 L 130.00,689.00 L 129.00,690.00 L 127.00,689.00 L 113.00,689.00 L 112.00,690.00 L 106.00,690.00 L 105.00,689.00 L 49.00,689.00 L 48.00,690.00 L 45.00,690.00 L 42.00,692.00 L 40.00,692.00 L 34.00,697.00 L 34.00,698.00 L 31.00,701.00 L 31.00,703.00 L 28.00,707.00 L 28.00,709.00 L 25.00,714.00 L 25.00,717.00 L 23.00,719.00 L 19.00,727.00 L 19.00,730.00 L 21.00,734.00 L 25.00,738.00 L 28.00,738.00 L 29.00,739.00 L 92.00,739.00 L 93.00,740.00 L 93.00,742.00 L 88.00,751.00 L 88.00,753.00 L 86.00,755.00 L 46.00,755.00 L 45.00,756.00 L 36.00,756.00 L 35.00,755.00 L 8.00,755.00 L 7.00,757.00 L 4.00,760.00 L 4.00,763.00 L 1.00,766.00 L 0.00,768.00 L 0.00,771.00 L 2.00,772.00 L 89.00,772.00 L 90.00,771.00 L 94.00,771.00 L 97.00,768.00 L 99.00,768.00 L 104.00,763.00 L 104.00,760.00 L 107.00,756.00 L 107.00,754.00 L 110.00,750.00 L 110.00,748.00 L 113.00,743.00 L 113.00,740.00 L 116.00,736.00 L 116.00,728.00 L 111.00,723.00 L 108.00,723.00 L 107.00,722.00 L 44.00,722.00 L 43.00,720.00 L 44.00,719.00 L 44.00,717.00 L 47.00,713.00 L 47.00,711.00 L 51.00,707.00 L 127.00,707.00 L 131.00,704.00 L 131.00,702.00 L 134.00,696.00 L 136.00,694.00 Z" fill="#FFFFFF" fill-rule="evenodd" transform="translate(6.00,6.00)"/>
<path d="M 2413.00,171.00 L 2410.00,168.00 L 2392.00,168.00 L 2391.00,169.00 L 2363.00,169.00 L 2362.00,168.00 L 2329.00,169.00 L 2328.00,168.00 L 2313.00,168.00 L 2309.00,170.00 L 2309.00,171.00 L 2306.00,174.00 L 2305.00,174.00 L 2305.00,175.00 L 2303.00,176.00 L 2302.00,178.00 L 2300.00,179.00 L 2299.00,181.00 L 2297.00,182.00 L 2296.00,184.00 L 2294.00,185.00 L 2293.00,187.00 L 2291.00,188.00 L 2290.00,190.00 L 2288.00,191.00 L 2287.00,193.00 L 2285.00,194.00 L 2284.00,196.00 L 2154.00,326.00 L 2153.00,326.00 L 2152.00,328.00 L 2150.00,329.00 L 2149.00,331.00 L 2147.00,332.00 L 2146.00,334.00 L 2144.00,335.00 L 2143.00,337.00 L 2141.00,338.00 L 2141.00,339.00 L 2129.00,351.00 L 2128.00,351.00 L 2128.00,352.00 L 2126.00,353.00 L 2125.00,355.00 L 2123.00,356.00 L 2122.00,358.00 L 2120.00,359.00 L 2116.00,363.00 L 2116.00,364.00 L 2114.00,365.00 L 2113.00,367.00 L 2111.00,368.00 L 2110.00,370.00 L 2107.00,372.00 L 2106.00,374.00 L 2105.00,374.00 L 2081.00,398.00 L 2080.00,398.00 L 2080.00,399.00 L 2068.00,411.00 L 2068.00,412.00 L 2066.00,413.00 L 2062.00,417.00 L 2062.00,418.00 L 2060.00,419.00 L 2059.00,421.00 L 2057.00,422.00 L 2048.00,431.00 L 2047.00,431.00 L 2037.00,440.00 L 2035.00,440.00 L 2032.00,443.00 L 2029.00,444.00 L 2027.00,446.00 L 2025.00,446.00 L 2021.00,449.00 L 2019.00,449.00 L 2015.00,452.00 L 2010.00,453.00 L 2007.00,455.00 L 2003.00,455.00 L 1997.00,458.00 L 1989.00,458.00 L 1988.00,459.00 L 1982.00,459.00 L 1981.00,460.00 L 1459.00,460.00 L 1458.00,459.00 L 1455.00,459.00 L 1454.00,458.00 L 1449.00,458.00 L 1444.00,455.00 L 1442.00,455.00 L 1439.00,452.00 L 1438.00,452.00 L 1433.00,445.00 L 1433.00,430.00 L 1435.00,428.00 L 1436.00,424.00 L 1439.00,421.00 L 1439.00,420.00 L 1442.00,417.00 L 1442.00,416.00 L 1444.00,414.00 L 1445.00,414.00 L 1445.00,413.00 L 1451.00,407.00 L 1451.00,406.00 L 1453.00,405.00 L 1454.00,403.00 L 1456.00,402.00 L 1456.00,401.00 L 1472.00,385.00 L 1472.00,384.00 L 1487.00,370.00 L 1487.00,369.00 L 1499.00,357.00 L 1499.00,356.00 L 1501.00,354.00 L 1502.00,354.00 L 1502.00,353.00 L 1504.00,351.00 L 1505.00,351.00 L 1505.00,350.00 L 1514.00,341.00 L 1514.00,340.00 L 1517.00,338.00 L 1517.00,337.00 L 1562.00,291.00 L 1562.00,288.00 L 1561.00,287.00 L 1334.00,287.00 L 1330.00,290.00 L 1330.00,291.00 L 1327.00,294.00 L 1327.00,295.00 L 1325.00,296.00 L 1325.00,297.00 L 1321.00,301.00 L 1321.00,302.00 L 1315.00,308.00 L 1315.00,309.00 L 1312.00,312.00 L 1312.00,313.00 L 1310.00,314.00 L 1310.00,315.00 L 1303.00,322.00 L 1303.00,323.00 L 1297.00,329.00 L 1297.00,330.00 L 1294.00,333.00 L 1294.00,334.00 L 1287.00,341.00 L 1287.00,342.00 L 1282.00,347.00 L 1282.00,348.00 L 1280.00,350.00 L 1279.00,350.00 L 1279.00,351.00 L 1276.00,354.00 L 1276.00,355.00 L 1252.00,382.00 L 1252.00,383.00 L 1249.00,386.00 L 1249.00,387.00 L 1246.00,390.00 L 1246.00,391.00 L 1240.00,397.00 L 1240.00,398.00 L 1237.00,401.00 L 1237.00,402.00 L 1235.00,404.00 L 1234.00,404.00 L 1234.00,405.00 L 1231.00,408.00 L 1231.00,409.00 L 1225.00,415.00 L 1225.00,416.00 L 1222.00,419.00 L 1222.00,420.00 L 1215.00,428.00 L 1213.00,432.00 L 1204.00,443.00 L 1204.00,445.00 L 1201.00,448.00 L 1200.00,451.00 L 1195.00,458.00 L 1195.00,460.00 L 1192.00,465.00 L 1192.00,467.00 L 1189.00,471.00 L 1189.00,474.00 L 1186.00,480.00 L 1186.00,484.00 L 1184.00,488.00 L 1184.00,492.00 L 1183.00,493.00 L 1183.00,517.00 L 1184.00,518.00 L 1184.00,521.00 L 1186.00,525.00 L 1186.00,529.00 L 1188.00,531.00 L 1189.00,535.00 L 1192.00,538.00 L 1192.00,540.00 L 1195.00,543.00 L 1195.00,544.00 L 1209.00,558.00 L 1210.00,558.00 L 1213.00,561.00 L 1215.00,561.00 L 1218.00,564.00 L 1220.00,564.00 L 1224.00,567.00 L 1226.00,567.00 L 1231.00,570.00 L 1234.00,570.00 L 1240.00,573.00 L 1244.00,573.00 L 1245.00,574.00 L 1248.00,574.00 L 1252.00,576.00 L 1260.00,576.00 L 1261.00,577.00 L 1265.00,577.00 L 1266.00,578.00 L 1275.00,578.00 L 1276.00,579.00 L 1902.00,579.00 L 1903.00,578.00 L 1943.00,578.00 L 1944.00,579.00 L 1949.00,579.00 L 1950.00,578.00 L 1951.00,579.00 L 2028.00,579.00 L 2029.00,578.00 L 2040.00,578.00 L 2041.00,577.00 L 2047.00,577.00 L 2048.00,576.00 L 2059.00,576.00 L 2060.00,575.00 L 2064.00,575.00 L 2065.00,574.00 L 2068.00,574.00 L 2069.00,573.00 L 2075.00,573.00 L 2076.00,572.00 L 2079.00,572.00 L 2082.00,570.00 L 2087.00,570.00 L 2092.00,567.00 L 2096.00,567.00 L 2100.00,564.00 L 2103.00,564.00 L 2108.00,561.00 L 2112.00,560.00 L 2114.00,558.00 L 2116.00,558.00 L 2118.00,556.00 L 2123.00,554.00 L 2125.00,552.00 L 2127.00,552.00 L 2130.00,549.00 L 2132.00,549.00 L 2135.00,546.00 L 2136.00,546.00 L 2139.00,543.00 L 2140.00,543.00 L 2143.00,540.00 L 2144.00,540.00 L 2177.00,507.00 L 2177.00,506.00 L 2186.00,497.00 L 2186.00,496.00 L 2188.00,495.00 L 2188.00,494.00 L 2213.00,469.00 L 2213.00,468.00 L 2221.00,460.00 L 2222.00,460.00 L 2222.00,459.00 L 2246.00,435.00 L 2246.00,434.00 L 2248.00,432.00 L 2249.00,432.00 L 2291.00,390.00 L 2292.00,390.00 L 2296.00,386.00 L 2297.00,384.00 L 2298.00,384.00 L 2337.00,345.00 L 2338.00,345.00 L 2339.00,343.00 L 2341.00,342.00 L 2343.00,339.00 L 2344.00,339.00 L 2353.00,330.00 L 2354.00,330.00 L 2354.00,329.00 L 2356.00,327.00 L 2357.00,327.00 L 2357.00,326.00 L 2359.00,324.00 L 2360.00,324.00 L 2360.00,323.00 L 2362.00,321.00 L 2363.00,321.00 L 2363.00,320.00 L 2365.00,318.00 L 2366.00,318.00 L 2366.00,317.00 L 2368.00,315.00 L 2369.00,315.00 L 2422.00,263.00 L 2423.00,260.00 L 2422.00,259.00 L 2422.00,252.00 L 2421.00,251.00 L 2421.00,245.00 L 2420.00,244.00 L 2420.00,230.00 L 2419.00,229.00 L 2419.00,224.00 L 2418.00,223.00 L 2418.00,218.00 L 2417.00,217.00 L 2417.00,204.00 L 2416.00,203.00 L 2416.00,198.00 L 2415.00,197.00 L 2415.00,193.00 L 2414.00,192.00 L 2414.00,176.00 L 2413.00,175.00 Z" fill="#FFFFFF" fill-rule="evenodd" transform="translate(6.00,6.00)"/>
<path d="M 25.00,577.00 L 27.00,579.00 L 33.00,578.00 L 35.00,579.00 L 487.00,579.00 L 488.00,578.00 L 892.00,579.00 L 921.00,576.00 L 930.00,573.00 L 937.00,573.00 L 943.00,570.00 L 949.00,570.00 L 954.00,567.00 L 959.00,567.00 L 964.00,564.00 L 975.00,561.00 L 1005.00,546.00 L 1031.00,528.00 L 1057.00,504.00 L 1094.00,456.00 L 1094.00,454.00 L 1154.00,375.00 L 1160.00,364.00 L 1164.00,347.00 L 1163.00,328.00 L 1157.00,316.00 L 1146.00,305.00 L 1135.00,299.00 L 1120.00,294.00 L 1100.00,290.00 L 1085.00,289.00 L 980.00,288.00 L 483.00,289.00 L 478.00,285.00 L 480.00,280.00 L 494.00,260.00 L 512.00,243.00 L 523.00,237.00 L 545.00,232.00 L 1225.00,232.00 L 1226.00,231.00 L 1617.00,232.00 L 1621.00,231.00 L 1662.00,187.00 L 1676.00,174.00 L 1682.00,166.00 L 1727.00,120.00 L 1730.00,114.00 L 1729.00,113.00 L 481.00,113.00 L 472.00,116.00 L 465.00,116.00 L 437.00,125.00 L 412.00,137.00 L 394.00,149.00 L 392.00,152.00 L 389.00,153.00 L 376.00,164.00 L 357.00,185.00 L 334.00,222.00 L 304.00,265.00 L 304.00,267.00 L 289.00,286.00 L 283.00,297.00 L 259.00,330.00 L 255.00,343.00 L 256.00,365.00 L 259.00,372.00 L 270.00,384.00 L 294.00,396.00 L 298.00,396.00 L 304.00,399.00 L 312.00,399.00 L 326.00,402.00 L 449.00,401.00 L 924.00,402.00 L 926.00,404.00 L 904.00,436.00 L 897.00,443.00 L 878.00,455.00 L 858.00,460.00 L 592.00,461.00 L 130.00,460.00 L 127.00,461.00 L 106.00,486.00 L 58.00,540.00 L 52.00,545.00 Z" fill="#FFFFFF" fill-rule="evenodd" transform="translate(6.00,6.00)"/>
<path d="M 2614.00,0.00 L 2610.00,0.00 L 2607.00,2.00 L 2604.00,2.00 L 2603.00,3.00 L 2601.00,3.00 L 2597.00,5.00 L 2594.00,5.00 L 2589.00,8.00 L 2586.00,8.00 L 2580.00,11.00 L 2577.00,11.00 L 2572.00,14.00 L 2568.00,14.00 L 2563.00,17.00 L 2559.00,17.00 L 2555.00,20.00 L 2551.00,20.00 L 2546.00,23.00 L 2542.00,23.00 L 2538.00,26.00 L 2533.00,26.00 L 2528.00,29.00 L 2525.00,29.00 L 2520.00,32.00 L 2516.00,32.00 L 2511.00,35.00 L 2507.00,35.00 L 2502.00,38.00 L 2498.00,38.00 L 2493.00,41.00 L 2490.00,41.00 L 2484.00,44.00 L 2481.00,44.00 L 2476.00,47.00 L 2473.00,47.00 L 2468.00,50.00 L 2464.00,50.00 L 2459.00,53.00 L 2456.00,53.00 L 2451.00,56.00 L 2448.00,56.00 L 2443.00,59.00 L 2440.00,59.00 L 2435.00,62.00 L 2431.00,62.00 L 2426.00,65.00 L 2422.00,65.00 L 2418.00,68.00 L 2414.00,68.00 L 2409.00,71.00 L 2404.00,72.00 L 2394.00,77.00 L 2391.00,77.00 L 2386.00,80.00 L 2383.00,80.00 L 2377.00,83.00 L 2374.00,83.00 L 2369.00,86.00 L 2365.00,86.00 L 2360.00,89.00 L 2357.00,89.00 L 2352.00,92.00 L 2349.00,92.00 L 2344.00,95.00 L 2340.00,95.00 L 2336.00,98.00 L 2332.00,98.00 L 2328.00,101.00 L 2325.00,101.00 L 2320.00,104.00 L 2317.00,104.00 L 2312.00,107.00 L 2309.00,107.00 L 2304.00,110.00 L 2301.00,110.00 L 2298.00,112.00 L 2296.00,112.00 L 2295.00,113.00 L 2292.00,113.00 L 2287.00,116.00 L 2283.00,116.00 L 2279.00,119.00 L 2275.00,119.00 L 2271.00,122.00 L 2268.00,122.00 L 2263.00,125.00 L 2260.00,125.00 L 2256.00,128.00 L 2252.00,128.00 L 2250.00,129.00 L 2248.00,132.00 L 2249.00,134.00 L 2450.00,134.00 L 2452.00,136.00 L 2452.00,148.00 L 2453.00,149.00 L 2453.00,156.00 L 2454.00,157.00 L 2454.00,161.00 L 2455.00,162.00 L 2455.00,175.00 L 2456.00,176.00 L 2456.00,181.00 L 2457.00,182.00 L 2457.00,187.00 L 2458.00,188.00 L 2458.00,201.00 L 2459.00,202.00 L 2459.00,208.00 L 2460.00,209.00 L 2460.00,214.00 L 2461.00,215.00 L 2461.00,228.00 L 2462.00,229.00 L 2462.00,234.00 L 2463.00,235.00 L 2463.00,239.00 L 2464.00,240.00 L 2464.00,255.00 L 2465.00,256.00 L 2467.00,256.00 L 2470.00,253.00 L 2471.00,251.00 L 2471.00,249.00 L 2474.00,246.00 L 2475.00,243.00 L 2477.00,241.00 L 2477.00,239.00 L 2479.00,237.00 L 2480.00,234.00 L 2483.00,231.00 L 2483.00,229.00 L 2486.00,226.00 L 2486.00,224.00 L 2489.00,220.00 L 2489.00,218.00 L 2491.00,216.00 L 2496.00,206.00 L 2498.00,204.00 L 2498.00,202.00 L 2501.00,199.00 L 2501.00,197.00 L 2503.00,195.00 L 2504.00,193.00 L 2504.00,191.00 L 2507.00,188.00 L 2507.00,186.00 L 2510.00,183.00 L 2510.00,181.00 L 2513.00,178.00 L 2513.00,176.00 L 2515.00,174.00 L 2516.00,172.00 L 2516.00,170.00 L 2519.00,167.00 L 2519.00,165.00 L 2522.00,162.00 L 2522.00,160.00 L 2524.00,158.00 L 2526.00,153.00 L 2528.00,151.00 L 2528.00,149.00 L 2530.00,147.00 L 2531.00,144.00 L 2533.00,142.00 L 2534.00,139.00 L 2536.00,137.00 L 2538.00,132.00 L 2540.00,130.00 L 2541.00,127.00 L 2543.00,125.00 L 2543.00,123.00 L 2546.00,120.00 L 2546.00,118.00 L 2548.00,116.00 L 2549.00,114.00 L 2549.00,112.00 L 2552.00,109.00 L 2552.00,107.00 L 2555.00,104.00 L 2555.00,102.00 L 2557.00,100.00 L 2558.00,97.00 L 2560.00,95.00 L 2561.00,92.00 L 2563.00,90.00 L 2565.00,85.00 L 2567.00,83.00 L 2568.00,80.00 L 2570.00,78.00 L 2570.00,76.00 L 2573.00,73.00 L 2573.00,71.00 L 2575.00,69.00 L 2577.00,64.00 L 2581.00,59.00 L 2582.00,57.00 L 2582.00,55.00 L 2585.00,52.00 L 2585.00,50.00 L 2587.00,48.00 L 2589.00,43.00 L 2591.00,41.00 L 2592.00,38.00 L 2594.00,36.00 L 2594.00,34.00 L 2597.00,31.00 L 2598.00,28.00 L 2600.00,26.00 L 2604.00,18.00 L 2608.00,13.00 L 2609.00,11.00 L 2609.00,9.00 L 2612.00,6.00 L 2614.00,2.00 Z" fill="#FFFFFF" fill-rule="evenodd" transform="translate(6.00,6.00)"/>
</svg>
