<svg xmlns="http://www.w3.org/2000/svg" viewBox="0 0 1422.00 164.00" role="img" aria-label="Scale Up scale-up-horizontal-lockup-white">

<path d="M 1084.00,106.00 L 1082.00,105.00 L 1078.00,105.00 L 1077.00,106.00 L 1041.00,106.00 L 1039.00,108.00 L 1037.00,112.00 L 1037.00,114.00 L 1038.00,115.00 L 1080.00,115.00 L 1082.00,113.00 L 1082.00,111.00 L 1084.00,108.00 Z" fill="#FFFFFF" fill-rule="evenodd" transform="translate(6.00,6.00)"/>
<path d="M 1044.00,99.00 L 1045.00,100.00 L 1086.00,100.00 L 1088.00,98.00 L 1088.00,96.00 L 1089.00,95.00 L 1089.00,92.00 L 1088.00,91.00 L 1051.00,91.00 L 1050.00,92.00 L 1047.00,92.00 L 1045.00,93.00 L 1045.00,95.00 L 1044.00,96.00 Z" fill="#FFFFFF" fill-rule="evenodd" transform="translate(6.00,6.00)"/>
<path d="M 1350.00,114.00 L 1351.00,115.00 L 1357.00,115.00 L 1361.00,111.00 L 1361.00,108.00 L 1363.00,106.00 L 1364.00,104.00 L 1364.00,102.00 L 1367.00,100.00 L 1399.00,100.00 L 1403.00,96.00 L 1406.00,90.00 L 1406.00,87.00 L 1409.00,83.00 L 1408.00,80.00 L 1404.00,77.00 L 1367.00,77.00 L 1364.00,80.00 L 1363.00,82.00 L 1363.00,84.00 L 1364.00,85.00 L 1395.00,85.00 L 1396.00,86.00 L 1396.00,89.00 L 1394.00,91.00 L 1370.00,91.00 L 1369.00,92.00 L 1361.00,92.00 L 1359.00,93.00 L 1357.00,95.00 L 1357.00,98.00 L 1354.00,101.00 L 1354.00,104.00 L 1351.00,108.00 L 1351.00,111.00 L 1350.00,112.00 Z" fill="#FFFFFF" fill-rule="evenodd" transform="translate(6.00,6.00)"/>
<path d="M 1231.00,78.00 L 1231.00,80.00 L 1228.00,84.00 L 1228.00,87.00 L 1225.00,92.00 L 1225.00,95.00 L 1222.00,99.00 L 1222.00,102.00 L 1219.00,106.00 L 1219.00,111.00 L 1223.00,115.00 L 1257.00,115.00 L 1259.00,114.00 L 1265.00,108.00 L 1265.00,104.00 L 1268.00,100.00 L 1268.00,97.00 L 1270.00,95.00 L 1270.00,93.00 L 1271.00,92.00 L 1271.00,89.00 L 1273.00,87.00 L 1274.00,85.00 L 1274.00,83.00 L 1276.00,79.00 L 1274.00,77.00 L 1268.00,77.00 L 1265.00,79.00 L 1264.00,81.00 L 1264.00,84.00 L 1261.00,89.00 L 1261.00,91.00 L 1258.00,95.00 L 1258.00,98.00 L 1255.00,104.00 L 1253.00,106.00 L 1251.00,105.00 L 1249.00,105.00 L 1248.00,106.00 L 1231.00,106.00 L 1230.00,105.00 L 1230.00,103.00 L 1232.00,101.00 L 1232.00,99.00 L 1235.00,95.00 L 1235.00,91.00 L 1237.00,89.00 L 1237.00,87.00 L 1238.00,86.00 L 1238.00,83.00 L 1241.00,80.00 L 1239.00,77.00 L 1233.00,77.00 Z" fill="#FFFFFF" fill-rule="evenodd" transform="translate(6.00,6.00)"/>
<path d="M 1051.00,85.00 L 1092.00,85.00 L 1095.00,82.00 L 1096.00,80.00 L 1096.00,78.00 L 1095.00,77.00 L 1054.00,77.00 L 1052.00,78.00 L 1051.00,80.00 Z" fill="#FFFFFF" fill-rule="evenodd" transform="translate(6.00,6.00)"/>
<path d="M 925.00,78.00 L 925.00,79.00 L 922.00,83.00 L 922.00,86.00 L 920.00,88.00 L 919.00,90.00 L 919.00,92.00 L 916.00,96.00 L 916.00,100.00 L 913.00,104.00 L 913.00,106.00 L 912.00,107.00 L 912.00,111.00 L 913.00,113.00 L 915.00,115.00 L 954.00,115.00 L 956.00,113.00 L 956.00,111.00 L 958.00,108.00 L 957.00,106.00 L 940.00,106.00 L 939.00,105.00 L 937.00,105.00 L 936.00,106.00 L 925.00,106.00 L 923.00,104.00 L 926.00,101.00 L 926.00,98.00 L 929.00,93.00 L 929.00,90.00 L 932.00,86.00 L 932.00,83.00 L 934.00,81.00 L 934.00,78.00 L 933.00,77.00 L 927.00,77.00 Z" fill="#FFFFFF" fill-rule="evenodd" transform="translate(6.00,6.00)"/>
<path d="M 820.00,78.00 L 818.00,78.00 L 817.00,77.00 L 813.00,77.00 L 812.00,78.00 L 809.00,78.00 L 808.00,80.00 L 806.00,81.00 L 806.00,82.00 L 801.00,87.00 L 799.00,88.00 L 799.00,89.00 L 790.00,98.00 L 790.00,99.00 L 776.00,113.00 L 777.00,115.00 L 786.00,115.00 L 794.00,107.00 L 794.00,106.00 L 803.00,97.00 L 803.00,96.00 L 805.00,94.00 L 806.00,94.00 L 806.00,93.00 L 810.00,89.00 L 813.00,95.00 L 813.00,98.00 L 814.00,99.00 L 814.00,105.00 L 815.00,106.00 L 815.00,110.00 L 816.00,111.00 L 816.00,113.00 L 818.00,115.00 L 825.00,115.00 L 827.00,113.00 L 827.00,112.00 L 826.00,111.00 L 826.00,108.00 L 825.00,107.00 L 825.00,104.00 L 824.00,103.00 L 824.00,94.00 L 823.00,93.00 L 823.00,90.00 L 822.00,89.00 L 822.00,86.00 L 821.00,85.00 L 821.00,80.00 Z" fill="#FFFFFF" fill-rule="evenodd" transform="translate(6.00,6.00)"/>
<path d="M 655.00,78.00 L 655.00,79.00 L 652.00,82.00 L 649.00,88.00 L 649.00,91.00 L 646.00,95.00 L 646.00,98.00 L 641.00,108.00 L 641.00,111.00 L 643.00,113.00 L 643.00,114.00 L 645.00,115.00 L 682.00,115.00 L 684.00,114.00 L 686.00,112.00 L 686.00,107.00 L 685.00,106.00 L 654.00,106.00 L 653.00,105.00 L 653.00,102.00 L 655.00,100.00 L 656.00,98.00 L 656.00,96.00 L 661.00,86.00 L 663.00,86.00 L 664.00,85.00 L 665.00,86.00 L 671.00,86.00 L 672.00,85.00 L 696.00,85.00 L 698.00,83.00 L 698.00,78.00 L 697.00,77.00 L 658.00,77.00 L 657.00,78.00 Z" fill="#FFFFFF" fill-rule="evenodd" transform="translate(6.00,6.00)"/>
<path d="M 525.00,78.00 L 520.00,83.00 L 520.00,86.00 L 517.00,90.00 L 517.00,94.00 L 516.00,95.00 L 517.00,97.00 L 517.00,99.00 L 519.00,100.00 L 547.00,100.00 L 548.00,101.00 L 548.00,103.00 L 545.00,106.00 L 512.00,106.00 L 509.00,109.00 L 508.00,111.00 L 508.00,114.00 L 509.00,115.00 L 550.00,115.00 L 557.00,107.00 L 557.00,102.00 L 560.00,98.00 L 560.00,95.00 L 559.00,93.00 L 557.00,92.00 L 555.00,92.00 L 554.00,91.00 L 539.00,91.00 L 538.00,92.00 L 529.00,92.00 L 528.00,91.00 L 528.00,89.00 L 531.00,85.00 L 564.00,85.00 L 566.00,83.00 L 567.00,78.00 L 566.00,77.00 L 527.00,77.00 Z" fill="#FFFFFF" fill-rule="evenodd" transform="translate(6.00,6.00)"/>
<path d="M 442.00,45.00 L 438.00,42.00 L 430.00,42.00 L 429.00,43.00 L 421.00,43.00 L 409.00,57.00 L 409.00,59.00 L 407.00,60.00 L 407.00,61.00 L 403.00,65.00 L 403.00,66.00 L 400.00,69.00 L 400.00,70.00 L 388.00,83.00 L 388.00,84.00 L 385.00,87.00 L 385.00,88.00 L 382.00,91.00 L 382.00,92.00 L 379.00,95.00 L 379.00,96.00 L 376.00,99.00 L 376.00,100.00 L 373.00,103.00 L 373.00,104.00 L 367.00,110.00 L 367.00,111.00 L 364.00,114.00 L 364.00,115.00 L 358.00,120.00 L 355.00,120.00 L 354.00,121.00 L 315.00,121.00 L 314.00,122.00 L 285.00,122.00 L 284.00,121.00 L 259.00,121.00 L 256.00,118.00 L 256.00,115.00 L 257.00,113.00 L 260.00,110.00 L 260.00,109.00 L 263.00,106.00 L 263.00,105.00 L 266.00,102.00 L 266.00,101.00 L 270.00,97.00 L 270.00,96.00 L 275.00,90.00 L 275.00,89.00 L 278.00,87.00 L 278.00,83.00 L 271.00,83.00 L 270.00,82.00 L 251.00,82.00 L 250.00,81.00 L 239.00,81.00 L 235.00,83.00 L 235.00,84.00 L 232.00,87.00 L 232.00,88.00 L 223.00,99.00 L 223.00,100.00 L 215.00,111.00 L 214.00,114.00 L 212.00,116.00 L 211.00,118.00 L 211.00,121.00 L 208.00,127.00 L 208.00,135.00 L 209.00,136.00 L 209.00,138.00 L 211.00,140.00 L 211.00,142.00 L 217.00,147.00 L 219.00,148.00 L 222.00,148.00 L 225.00,150.00 L 232.00,150.00 L 233.00,151.00 L 236.00,151.00 L 237.00,150.00 L 364.00,150.00 L 368.00,148.00 L 372.00,148.00 L 376.00,145.00 L 378.00,145.00 L 381.00,142.00 L 382.00,142.00 L 384.00,139.00 L 385.00,139.00 L 385.00,138.00 L 389.00,134.00 L 389.00,133.00 L 395.00,127.00 L 395.00,126.00 L 398.00,123.00 L 398.00,122.00 L 400.00,121.00 L 400.00,120.00 L 410.00,110.00 L 410.00,109.00 L 416.00,103.00 L 416.00,102.00 L 418.00,100.00 L 419.00,100.00 L 419.00,99.00 L 422.00,96.00 L 422.00,95.00 L 425.00,93.00 L 425.00,92.00 L 432.00,85.00 L 432.00,84.00 L 438.00,78.00 L 438.00,77.00 L 440.00,76.00 L 440.00,75.00 L 443.00,72.00 L 443.00,51.00 L 442.00,50.00 Z" fill="#FFFFFF" fill-rule="evenodd" transform="translate(6.00,6.00)"/>
<path d="M 0.00,150.00 L 2.00,150.00 L 3.00,151.00 L 5.00,151.00 L 6.00,150.00 L 8.00,150.00 L 9.00,151.00 L 23.00,151.00 L 24.00,150.00 L 156.00,150.00 L 157.00,149.00 L 160.00,149.00 L 161.00,148.00 L 166.00,148.00 L 174.00,144.00 L 176.00,142.00 L 177.00,142.00 L 181.00,138.00 L 182.00,138.00 L 182.00,137.00 L 184.00,136.00 L 184.00,135.00 L 188.00,131.00 L 188.00,129.00 L 191.00,126.00 L 191.00,124.00 L 194.00,121.00 L 194.00,119.00 L 197.00,115.00 L 197.00,113.00 L 200.00,110.00 L 200.00,108.00 L 203.00,105.00 L 203.00,103.00 L 205.00,101.00 L 205.00,99.00 L 206.00,98.00 L 206.00,94.00 L 203.00,88.00 L 200.00,85.00 L 198.00,84.00 L 196.00,84.00 L 195.00,83.00 L 172.00,83.00 L 171.00,82.00 L 114.00,82.00 L 113.00,83.00 L 94.00,83.00 L 93.00,82.00 L 91.00,83.00 L 89.00,81.00 L 89.00,78.00 L 91.00,76.00 L 91.00,75.00 L 96.00,70.00 L 289.00,70.00 L 293.00,67.00 L 293.00,66.00 L 296.00,63.00 L 296.00,62.00 L 302.00,56.00 L 305.00,50.00 L 311.00,44.00 L 313.00,40.00 L 312.00,39.00 L 84.00,39.00 L 79.00,42.00 L 77.00,42.00 L 75.00,43.00 L 69.00,48.00 L 68.00,48.00 L 64.00,52.00 L 64.00,53.00 L 62.00,54.00 L 61.00,57.00 L 58.00,60.00 L 58.00,62.00 L 55.00,65.00 L 55.00,67.00 L 53.00,69.00 L 52.00,71.00 L 52.00,73.00 L 49.00,76.00 L 49.00,78.00 L 47.00,80.00 L 41.00,92.00 L 41.00,97.00 L 43.00,100.00 L 43.00,102.00 L 47.00,106.00 L 50.00,107.00 L 52.00,109.00 L 158.00,109.00 L 159.00,111.00 L 157.00,113.00 L 157.00,115.00 L 154.00,118.00 L 154.00,119.00 L 153.00,120.00 L 151.00,120.00 L 150.00,121.00 L 146.00,121.00 L 145.00,122.00 L 115.00,122.00 L 114.00,121.00 L 88.00,121.00 L 87.00,122.00 L 19.00,122.00 L 16.00,124.00 L 16.00,125.00 L 13.00,128.00 L 10.00,134.00 L 1.00,145.00 L 0.00,147.00 Z" fill="#FFFFFF" fill-rule="evenodd" transform="translate(6.00,6.00)"/>
<path d="M 487.00,1.00 L 486.00,0.00 L 482.00,0.00 L 479.00,3.00 L 475.00,3.00 L 463.00,9.00 L 460.00,9.00 L 456.00,12.00 L 453.00,12.00 L 449.00,15.00 L 445.00,15.00 L 441.00,18.00 L 439.00,18.00 L 434.00,21.00 L 432.00,21.00 L 427.00,24.00 L 425.00,24.00 L 413.00,30.00 L 410.00,30.00 L 408.00,31.00 L 408.00,34.00 L 432.00,34.00 L 433.00,35.00 L 445.00,35.00 L 447.00,34.00 L 450.00,38.00 L 450.00,44.00 L 451.00,45.00 L 451.00,55.00 L 452.00,56.00 L 452.00,65.00 L 453.00,66.00 L 455.00,66.00 L 458.00,62.00 L 458.00,59.00 L 460.00,57.00 L 461.00,55.00 L 461.00,53.00 L 463.00,51.00 L 464.00,49.00 L 464.00,47.00 L 466.00,45.00 L 467.00,43.00 L 467.00,41.00 L 470.00,37.00 L 470.00,35.00 L 473.00,32.00 L 473.00,29.00 L 475.00,27.00 L 476.00,25.00 L 476.00,23.00 L 479.00,19.00 L 479.00,17.00 L 482.00,13.00 L 482.00,10.00 L 485.00,6.00 Z" fill="#FFFFFF" fill-rule="evenodd" transform="translate(6.00,6.00)"/>
</svg>
