<svg xmlns="http://www.w3.org/2000/svg" viewBox="0 0 1659.00 1659.00" role="img" aria-label="Scale Up scale-up-circle-icon">
<circle cx="829.50" cy="829.50" r="829.50" fill="#0A0A0A"/>
<path d="M 855.00,82.00 L 853.00,79.00 L 812.00,79.00 L 810.00,80.00 L 809.00,82.00 L 807.00,83.00 L 806.00,85.00 L 804.00,86.00 L 803.00,88.00 L 800.00,90.00 L 800.00,91.00 L 790.00,101.00 L 790.00,102.00 L 779.00,113.00 L 779.00,114.00 L 777.00,116.00 L 776.00,116.00 L 776.00,117.00 L 770.00,123.00 L 770.00,124.00 L 768.00,125.00 L 767.00,127.00 L 765.00,128.00 L 764.00,130.00 L 761.00,132.00 L 761.00,133.00 L 749.00,145.00 L 749.00,146.00 L 731.00,164.00 L 731.00,165.00 L 725.00,171.00 L 725.00,172.00 L 723.00,173.00 L 722.00,175.00 L 720.00,176.00 L 719.00,178.00 L 717.00,179.00 L 716.00,181.00 L 714.00,182.00 L 713.00,184.00 L 700.00,197.00 L 697.00,198.00 L 695.00,200.00 L 690.00,201.00 L 687.00,203.00 L 499.00,203.00 L 494.00,198.00 L 494.00,194.00 L 495.00,193.00 L 495.00,191.00 L 498.00,188.00 L 498.00,187.00 L 501.00,185.00 L 501.00,184.00 L 537.00,147.00 L 537.00,143.00 L 454.00,143.00 L 443.00,155.00 L 443.00,156.00 L 438.00,161.00 L 438.00,162.00 L 431.00,169.00 L 431.00,170.00 L 427.00,174.00 L 427.00,175.00 L 425.00,176.00 L 425.00,177.00 L 423.00,179.00 L 422.00,179.00 L 422.00,180.00 L 413.00,190.00 L 410.00,196.00 L 407.00,199.00 L 407.00,201.00 L 404.00,205.00 L 404.00,208.00 L 401.00,212.00 L 401.00,230.00 L 404.00,234.00 L 405.00,237.00 L 406.00,237.00 L 407.00,239.00 L 410.00,242.00 L 411.00,242.00 L 416.00,246.00 L 418.00,246.00 L 423.00,249.00 L 429.00,249.00 L 430.00,250.00 L 454.00,250.00 L 455.00,251.00 L 468.00,251.00 L 469.00,250.00 L 705.00,250.00 L 706.00,249.00 L 714.00,249.00 L 715.00,248.00 L 718.00,248.00 L 721.00,246.00 L 725.00,246.00 L 730.00,243.00 L 732.00,243.00 L 734.00,242.00 L 736.00,240.00 L 738.00,240.00 L 741.00,237.00 L 742.00,237.00 L 745.00,234.00 L 746.00,234.00 L 747.00,232.00 L 749.00,231.00 L 749.00,230.00 L 812.00,167.00 L 813.00,167.00 L 813.00,166.00 L 815.00,165.00 L 831.00,149.00 L 831.00,148.00 L 833.00,147.00 L 834.00,145.00 L 837.00,143.00 L 838.00,141.00 L 839.00,141.00 L 845.00,135.00 L 846.00,135.00 L 846.00,134.00 L 848.00,132.00 L 849.00,132.00 L 849.00,131.00 L 851.00,129.00 L 852.00,129.00 L 858.00,123.00 L 858.00,110.00 L 857.00,109.00 L 857.00,103.00 L 856.00,102.00 L 856.00,97.00 L 855.00,96.00 Z" fill="#FFFFFF" fill-rule="evenodd" transform="translate(358.00,703.50)"/>
<path d="M 0.00,250.00 L 300.00,250.00 L 301.00,249.00 L 310.00,249.00 L 311.00,248.00 L 313.00,248.00 L 317.00,246.00 L 322.00,246.00 L 327.00,243.00 L 330.00,243.00 L 332.00,241.00 L 334.00,240.00 L 336.00,240.00 L 339.00,237.00 L 345.00,234.00 L 345.00,233.00 L 347.00,231.00 L 348.00,231.00 L 357.00,222.00 L 359.00,218.00 L 366.00,210.00 L 366.00,208.00 L 372.00,201.00 L 375.00,195.00 L 378.00,192.00 L 378.00,191.00 L 381.00,188.00 L 381.00,187.00 L 384.00,184.00 L 384.00,183.00 L 393.00,172.00 L 393.00,167.00 L 394.00,166.00 L 394.00,163.00 L 393.00,162.00 L 393.00,157.00 L 390.00,154.00 L 389.00,152.00 L 388.00,152.00 L 381.00,146.00 L 378.00,146.00 L 372.00,143.00 L 169.00,143.00 L 167.00,141.00 L 168.00,139.00 L 171.00,136.00 L 171.00,134.00 L 174.00,131.00 L 174.00,130.00 L 178.00,126.00 L 181.00,125.00 L 183.00,123.00 L 187.00,123.00 L 188.00,122.00 L 214.00,122.00 L 215.00,121.00 L 238.00,121.00 L 239.00,122.00 L 328.00,122.00 L 329.00,121.00 L 373.00,121.00 L 374.00,122.00 L 403.00,122.00 L 404.00,121.00 L 486.00,121.00 L 487.00,122.00 L 511.00,122.00 L 512.00,121.00 L 561.00,121.00 L 563.00,120.00 L 563.00,119.00 L 573.00,109.00 L 573.00,108.00 L 582.00,99.00 L 582.00,98.00 L 584.00,96.00 L 585.00,96.00 L 585.00,95.00 L 597.00,83.00 L 597.00,82.00 L 599.00,81.00 L 600.00,79.00 L 603.00,77.00 L 603.00,73.00 L 171.00,73.00 L 170.00,74.00 L 161.00,74.00 L 156.00,77.00 L 152.00,77.00 L 147.00,80.00 L 145.00,80.00 L 140.00,83.00 L 138.00,83.00 L 135.00,86.00 L 133.00,86.00 L 129.00,90.00 L 128.00,90.00 L 128.00,91.00 L 126.00,92.00 L 115.00,104.00 L 113.00,108.00 L 104.00,119.00 L 104.00,121.00 L 101.00,124.00 L 101.00,126.00 L 99.00,128.00 L 98.00,131.00 L 95.00,134.00 L 95.00,136.00 L 89.00,143.00 L 89.00,144.00 L 87.00,146.00 L 87.00,147.00 L 85.00,149.00 L 85.00,150.00 L 83.00,152.00 L 83.00,153.00 L 80.00,157.00 L 80.00,171.00 L 85.00,177.00 L 86.00,177.00 L 89.00,180.00 L 91.00,180.00 L 93.00,181.00 L 95.00,183.00 L 102.00,183.00 L 103.00,184.00 L 108.00,184.00 L 109.00,185.00 L 142.00,185.00 L 143.00,184.00 L 148.00,184.00 L 149.00,185.00 L 151.00,185.00 L 152.00,184.00 L 166.00,184.00 L 167.00,185.00 L 169.00,185.00 L 170.00,184.00 L 228.00,184.00 L 229.00,185.00 L 248.00,185.00 L 249.00,184.00 L 294.00,184.00 L 295.00,185.00 L 302.00,185.00 L 304.00,184.00 L 306.00,186.00 L 306.00,187.00 L 304.00,191.00 L 302.00,193.00 L 302.00,194.00 L 299.00,197.00 L 299.00,198.00 L 293.00,203.00 L 290.00,203.00 L 286.00,205.00 L 52.00,205.00 L 51.00,206.00 L 35.00,206.00 L 32.00,209.00 L 32.00,210.00 L 29.00,213.00 L 29.00,214.00 L 23.00,220.00 L 23.00,221.00 L 17.00,227.00 L 17.00,228.00 L 11.00,234.00 L 11.00,235.00 L 9.00,236.00 L 9.00,237.00 L 5.00,241.00 L 5.00,242.00 L 0.00,247.00 Z" fill="#FFFFFF" fill-rule="evenodd" transform="translate(358.00,703.50)"/>
<path d="M 942.00,0.00 L 939.00,0.00 L 937.00,2.00 L 933.00,2.00 L 928.00,5.00 L 925.00,5.00 L 920.00,8.00 L 917.00,8.00 L 913.00,11.00 L 909.00,11.00 L 904.00,14.00 L 901.00,14.00 L 895.00,17.00 L 892.00,17.00 L 887.00,20.00 L 884.00,20.00 L 879.00,23.00 L 876.00,23.00 L 871.00,26.00 L 868.00,26.00 L 864.00,29.00 L 859.00,29.00 L 855.00,32.00 L 852.00,32.00 L 847.00,35.00 L 844.00,35.00 L 840.00,38.00 L 836.00,38.00 L 831.00,41.00 L 826.00,42.00 L 823.00,44.00 L 820.00,44.00 L 816.00,47.00 L 812.00,47.00 L 810.00,49.00 L 808.00,50.00 L 806.00,50.00 L 801.00,53.00 L 798.00,53.00 L 793.00,56.00 L 790.00,56.00 L 788.00,57.00 L 786.00,59.00 L 786.00,61.00 L 787.00,62.00 L 793.00,62.00 L 794.00,61.00 L 795.00,62.00 L 797.00,62.00 L 798.00,61.00 L 799.00,62.00 L 813.00,62.00 L 814.00,61.00 L 835.00,61.00 L 836.00,62.00 L 868.00,62.00 L 871.00,64.00 L 871.00,70.00 L 872.00,71.00 L 872.00,82.00 L 873.00,83.00 L 873.00,88.00 L 874.00,89.00 L 874.00,93.00 L 875.00,94.00 L 875.00,106.00 L 876.00,107.00 L 876.00,115.00 L 877.00,117.00 L 881.00,117.00 L 882.00,115.00 L 882.00,113.00 L 885.00,109.00 L 885.00,107.00 L 888.00,104.00 L 888.00,102.00 L 891.00,99.00 L 891.00,97.00 L 894.00,93.00 L 894.00,91.00 L 897.00,87.00 L 897.00,85.00 L 900.00,82.00 L 900.00,79.00 L 903.00,76.00 L 903.00,74.00 L 905.00,72.00 L 907.00,67.00 L 909.00,65.00 L 909.00,63.00 L 912.00,60.00 L 912.00,58.00 L 915.00,55.00 L 915.00,53.00 L 918.00,49.00 L 918.00,47.00 L 920.00,45.00 L 921.00,43.00 L 921.00,41.00 L 924.00,38.00 L 924.00,36.00 L 926.00,34.00 L 927.00,32.00 L 927.00,30.00 L 930.00,27.00 L 930.00,24.00 L 933.00,21.00 L 933.00,19.00 L 936.00,16.00 L 936.00,13.00 L 939.00,10.00 L 939.00,8.00 L 942.00,5.00 Z" fill="#FFFFFF" fill-rule="evenodd" transform="translate(358.00,703.50)"/>
</svg>
